<svg width="32" height="32" xmlns="http://www.w3.org/2000/svg"><defs><linearGradient x1="50%" y1="-52.277%" x2="50%" y2="84.142%" id="a"><stop stop-color="#FFF" stop-opacity=".42" offset="0%"/><stop stop-color="#FFF" offset="100%"/></linearGradient></defs><path d="M16 27C9.925 27 5 22.075 5 16S9.925 5 16 5s11 4.925 11 11-4.925 11-11 11zm.143-16.64c-1.566 0-2.79.5-3.673 1.524-.854.968-1.267 2.22-1.267 3.772 0 1.538.413 2.79 1.267 3.758.883.997 2.107 1.51 3.673 1.51 1.551 0 2.776-.499 3.673-1.495.854-.954 1.28-2.207 1.28-3.773 0-1.566-.426-2.832-1.28-3.786-.897-1.01-2.122-1.51-3.673-1.51zm0 1.467c1.053 0 1.865.327 2.434 1.01.555.684.84 1.624.84 2.82 0 1.195-.285 2.12-.84 2.79-.57.669-1.38 1.01-2.434 1.01-1.054 0-1.88-.356-2.449-1.053-.555-.684-.825-1.595-.825-2.748 0-1.167.27-2.078.825-2.761.584-.712 1.395-1.068 2.449-1.068z" fill="url(#a)" fill-rule="evenodd"/></svg>