<svg width="32" height="32" xmlns="http://www.w3.org/2000/svg"><defs><linearGradient x1="50%" y1="-52.277%" x2="50%" y2="84.142%" id="a"><stop stop-color="#FFF" stop-opacity=".42" offset="0%"/><stop stop-color="#FFF" offset="100%"/></linearGradient></defs><path d="M16 27C9.925 27 5 22.075 5 16S9.925 5 16 5s11 4.925 11 11-4.925 11-11 11zm-3.86-16.08v10.163h1.665v-4.142h2.633c.57 0 1.011.114 1.31.37.285.242.456.64.512 1.196l.129 1.253c.057.569.199 1.01.44 1.323h1.809c-.342-.37-.555-.868-.612-1.494l-.171-1.637c-.114-.997-.612-1.58-1.495-1.78v-.028a2.21 2.21 0 0 0 1.296-.897 2.43 2.43 0 0 0 .427-1.41c0-.967-.328-1.708-.954-2.22-.598-.47-1.424-.698-2.463-.698H12.14zm1.665 1.423h2.633c.684 0 1.182.114 1.495.37.313.242.47.64.47 1.196 0 .512-.157.91-.47 1.196-.342.27-.84.412-1.495.412h-2.633v-3.174z" fill="url(#a)" fill-rule="evenodd"/></svg>