<svg width="32" height="32" xmlns="http://www.w3.org/2000/svg"><defs><linearGradient x1="50%" y1="-27.552%" x2="50%" y2="82.137%" id="a"><stop stop-color="#FFF" stop-opacity=".42" offset="0%"/><stop stop-color="#FFF" offset="100%"/></linearGradient></defs><g fill="none" fill-rule="evenodd"><path d="M0 0h32v32H0z"/><path d="M15.15 11.53l-.005-1.602-2.92-.48L16.874 4l-.406 3.585 2.484.65-2.107 3.294h3.769c3.706 0 6.71 2.979 6.71 6.653v.071c.13-.046.272-.07.419-.07.695 0 1.258.558 1.258 1.247v1.663c0 .689-.563 1.247-1.258 1.247-.147 0-.288-.025-.42-.07v1.318a2.088 2.088 0 0 1-2.096 2.079H6.774a2.088 2.088 0 0 1-2.097-2.08V22.27a1.266 1.266 0 0 1-.419.071A1.253 1.253 0 0 1 3 21.093V19.43c0-.69.563-1.248 1.258-1.248.147 0 .288.025.42.071v-.07c0-3.675 3.003-6.654 6.71-6.654h3.763zm5.463 4.113c-.695 0-1.258.563-1.258 1.258v2.057a1.258 1.258 0 0 0 2.516 0v-2.057c0-.695-.563-1.258-1.258-1.258zm-9.226 0c-.695 0-1.258.563-1.258 1.258v2.057a1.258 1.258 0 1 0 2.516 0v-2.057c0-.695-.563-1.258-1.258-1.258z" fill="url(#a)"/></g></svg>